version=1
nRows=48
nColumns=19
inDegrees=yes
endheader
time	ground_force_vx	ground_force_vy	ground_force_vz	ground_force_px	ground_force_py	ground_force_pz	1_ground_force_vx	1_ground_force_vy	1_ground_force_vz	1_ground_force_px	1_ground_force_py	1_ground_force_pz	ground_torque_x	ground_torque_y	ground_torque_z	1_ground_torque_x	1_ground_torque_y	1_ground_torque_z
149.99	-119.220818	614.110352	68.949608	0.021761	-0.000000	-0.126909	0.665090	32.767570	-2.675445	0.111501	-0.000000	0.125632	-0.000000	-20.696072	0.000000	-0.000000	-32.381001	0.000000
150.00	-132.468262	666.706543	44.719223	0.027983	-0.000000	-0.122423	-71.819717	-1.122983	-14.781453	14.485292	-0.000000	10.376444	-0.000000	-11.169481	0.000000	0.000000	513.472503	-0.000000
150.01	-100.213867	712.256104	46.124470	0.060410	-0.000000	-0.138899	67.182793	10.398913	-7.446157	0.031185	-0.000000	0.999022	-0.000000	-24.908296	0.000000	-0.000000	-44.417932	0.000000
150.02	-35.517788	759.479919	88.574951	0.015986	-0.000000	-0.108072	-17.660803	37.481644	9.396045	0.120511	-0.000000	0.213073	-0.000000	-25.013329	0.000000	0.000000	10.213880	-0.000000
150.03	-163.177109	762.640320	99.212364	-0.045066	0.000000	-0.129733	-34.436169	-15.411377	13.004740	-0.388041	0.000000	0.547990	-0.000000	-16.870665	0.000000	-0.000000	-5.278349	0.000000
150.04	-30.927900	765.163818	91.694450	0.007695	-0.000000	-0.102858	-0.000000	0.000000	-0.000000	0.000000	0.000000	0.250000	-0.000000	-12.245675	0.000000	-0.000000	0.000000	-0.000000
150.05	-49.954704	760.286743	52.794655	-0.006128	0.000000	-0.121594	41.913017	16.808580	-1.797138	0.638530	-0.000000	0.755537	0.000000	-41.030836	-0.000000	-0.000000	-12.389728	0.000000
150.06	-84.167763	743.898193	86.451042	-0.031711	0.000000	-0.109277	-50.454468	-7.243198	-18.635330	-0.494132	0.000000	0.810106	-0.000000	-5.395506	0.000000	0.000000	27.321107	-0.000000
150.07	-48.959171	754.722473	91.497185	-0.035926	0.000000	-0.108643	-0.000000	0.000000	-0.000000	0.000000	0.000000	0.250000	0.000000	-11.495272	-0.000000	-0.000000	0.000000	-0.000000
150.08	-32.742218	737.566833	72.871239	-0.063623	0.000000	-0.116704	46.833645	1.117263	26.386400	-5.035675	0.000000	10.942842	-0.000000	-31.573065	0.000000	-0.000000	-600.645706	0.000000
150.09	-29.263147	705.761230	81.400940	-0.058181	0.000000	-0.099483	-27.491165	14.199746	-5.611253	0.572141	-0.000000	0.074653	-0.000000	-6.106090	0.000000	-0.000000	-21.611820	0.000000
150.10	-69.643967	670.494324	65.242294	-0.063366	0.000000	-0.118536	-33.510036	-16.159668	-14.287219	-0.278442	0.000000	0.787084	-0.000000	-14.226277	0.000000	0.000000	11.685335	-0.000000
150.11	12.609745	637.564209	42.342354	-0.080631	0.000000	-0.097360	22.699997	-17.702127	6.562982	-0.322209	0.000000	0.119025	-0.000000	-19.047982	0.000000	0.000000	16.577496	-0.000000
150.12	-4.476340	659.379089	64.373848	-0.091999	0.000000	-0.109078	-0.000000	0.000000	-0.000000	0.000000	0.000000	0.250000	-0.000000	-21.762203	0.000000	-0.000000	0.000000	-0.000000
150.13	-48.796810	638.547668	67.728012	-0.092218	0.000000	-0.115955	-60.812553	5.247316	14.400204	-3.449390	0.000000	-0.312794	0.000000	7.659797	-0.000000	-0.000000	-71.747323	0.000000
150.14	-0.199170	596.441833	53.217537	-0.101539	0.000000	-0.097303	28.153551	-9.593307	-2.627742	-0.630154	0.000000	0.305574	-0.000000	-14.712845	0.000000	-0.000000	-11.777251	0.000000
150.15	36.490440	560.382080	33.820171	-0.103154	0.000000	-0.097088	-0.000000	0.000000	-0.000000	0.000000	0.000000	0.250000	-0.000000	-26.709598	0.000000	-0.000000	0.000000	-0.000000
150.16	-51.166790	564.850952	45.051155	-0.112536	0.000000	-0.119831	-31.948790	-1.912894	-12.985166	0.278597	-0.000000	2.921645	-0.000000	-0.938717	0.000000	0.000000	70.651233	-0.000000
150.17	10.098567	557.318726	64.503357	-0.128273	0.000000	-0.093553	-0.000000	0.000000	-0.000000	0.000000	0.000000	0.250000	-0.000000	-1.365758	0.000000	-0.000000	0.000000	-0.000000
150.18	21.046247	538.580994	46.625629	-0.156880	0.000000	-0.105954	37.488739	-8.239094	27.552309	-0.248838	0.000000	-0.388667	-0.000000	-24.529389	0.000000	0.000000	41.871782	-0.000000
150.19	-3.918145	548.311768	44.669456	-0.114642	0.000000	-0.101519	-23.066336	-9.065196	-10.575749	0.200409	-0.000000	1.022914	-0.000000	-1.690996	0.000000	0.000000	1.236339	-0.000000
150.20	-3.189393	530.665161	41.608345	-0.122433	0.000000	-0.100136	-42.693497	2.756932	-16.578896	2.301339	-0.000000	0.285249	-0.000000	-1.164124	0.000000	-0.000000	-37.776929	0.000000
150.21	20.209991	526.621765	31.368713	-0.171607	0.000000	-0.096977	41.912830	1.038637	4.002833	10.241243	-0.000000	5.276400	-0.000000	-19.657269	0.000000	-0.000000	-161.324569	0.000000
150.22	47.785103	548.164612	64.573471	-0.174394	0.000000	-0.081452	-0.000000	0.000000	-0.000000	0.000000	0.000000	0.250000	-0.000000	-13.516519	0.000000	-0.000000	0.000000	-0.000000
150.23	-26.445904	570.862427	65.187263	-0.193421	0.000000	-0.111398	-32.190498	-0.157258	10.590649	-2.298077	0.000000	22.699078	-0.000000	-6.892725	0.000000	0.000000	697.510899	-0.000000
150.24	54.137825	575.337830	43.847591	-0.168835	0.000000	-0.082668	-0.000000	0.000000	-0.000000	0.000000	0.000000	0.250000	-0.000000	-6.486353	0.000000	-0.000000	0.000000	-0.000000
150.25	55.612625	577.134399	41.261955	-0.182291	0.000000	-0.091926	26.958023	-15.017498	-2.304799	-0.110642	0.000000	-0.058354	-0.000000	-21.936409	0.000000	0.000000	9.376662	-0.000000
150.26	15.166940	595.317993	48.589260	-0.215870	0.000000	-0.094639	-46.866875	-4.991691	-6.936170	-0.643115	0.000000	1.675672	-0.000000	-5.834242	0.000000	0.000000	66.686477	-0.000000
150.27	47.644432	619.882874	61.535740	-0.219362	0.000000	-0.080207	-0.000000	0.000000	-0.000000	0.000000	0.000000	0.250000	0.000000	-8.977813	-0.000000	-0.000000	0.000000	-0.000000
150.28	73.555130	634.821594	51.225544	-0.224748	0.000000	-0.086715	37.115280	-5.180061	17.536524	-0.497880	0.000000	-1.504332	-0.000000	-20.357226	0.000000	0.000000	78.515497	-0.000000
150.29	57.742172	646.586243	55.522511	-0.236252	0.000000	-0.081543	-0.000000	0.000000	-0.000000	0.000000	0.000000	0.250000	-0.000000	-6.633994	0.000000	-0.000000	0.000000	-0.000000
150.30	59.324211	662.086609	62.319340	-0.246146	0.000000	-0.078198	-28.293968	-9.211546	-9.507395	-0.579672	0.000000	0.702241	-0.000000	-11.159834	0.000000	0.000000	3.805857	-0.000000
150.31	100.978973	694.169617	40.872768	-0.245232	0.000000	-0.078665	27.641951	1.219156	12.156935	1.273429	-0.000000	5.343095	-0.000000	-15.888456	0.000000	-0.000000	-107.510621	0.000000
150.32	90.857613	700.347168	63.269985	-0.277568	0.000000	-0.071154	-0.000000	0.000000	-0.000000	0.000000	0.000000	0.250000	-0.000000	-10.711111	0.000000	-0.000000	0.000000	-0.000000
150.33	88.674980	715.742676	64.763809	-0.298309	0.000000	-0.070718	-48.667675	3.669287	-4.596201	0.326291	-0.000000	-1.008864	-0.000000	-11.669095	0.000000	-0.000000	-66.927968	0.000000
150.34	128.611328	745.743469	48.461998	-0.282990	0.000000	-0.068191	-0.000000	0.000000	-0.000000	0.000000	0.000000	0.250000	-0.000000	-13.145691	-0.000000	-0.000000	0.000000	-0.000000
150.35	162.852539	755.433533	58.659592	-0.287230	0.000000	-0.058914	-0.000000	0.000000	-0.000000	0.000000	0.000000	0.250000	-0.000000	-13.938450	0.000000	-0.000000	0.000000	-0.000000
150.36	112.580688	758.124512	73.950020	-0.326989	0.000000	-0.060532	-32.940895	-2.112540	3.501025	3.475004	-0.000000	2.737796	-0.000000	-13.842992	0.000000	0.000000	90.671896	-0.000000
150.37	166.905212	759.369324	81.068214	-0.329443	0.000000	-0.045739	-0.000000	0.000000	-0.000000	0.000000	0.000000	0.250000	-0.000000	-24.708546	0.000000	-0.000000	0.000000	-0.000000
150.38	190.821426	751.049744	65.727394	-0.342601	0.000000	-0.048795	26.866995	-3.437009	9.548905	-2.651797	0.000000	-1.351377	-0.000000	-27.696585	0.000000	0.000000	29.695370	-0.000000
150.39	165.845230	742.236328	68.587364	-0.349723	0.000000	-0.045609	-17.015589	19.873932	-4.942506	0.399938	-0.000000	0.108117	-0.000000	-6.693067	-0.000000	-0.000000	-3.128804	0.000000
150.40	192.949951	713.859985	84.414772	-0.351142	0.000000	-0.030572	-51.825657	87.146210	4.042744	0.000553	-0.000000	0.029205	-0.000000	-24.470815	0.000000	-0.000000	-17.871490	0.000000
150.41	217.329453	679.371521	54.516163	-0.369569	0.000000	-0.030272	-19.024458	383.111481	35.018272	0.016178	-0.000000	0.076536	-0.000000	-35.042996	0.000000	0.000000	3.854468	-0.000000
150.42	206.141953	656.749207	76.571205	-0.366983	0.000000	-0.023782	9.279826	381.291199	4.162165	0.142081	-0.000000	0.087846	-0.000000	-15.991527	0.000000	-0.000000	13.042671	0.000000
150.43	204.849304	566.142273	72.063866	-0.395058	0.000000	-0.015399	-91.987198	383.835785	5.235219	0.129211	-0.000000	0.095825	-0.000000	-16.463858	0.000000	0.000000	19.306948	-0.000000
150.44	198.939087	448.772614	1.748304	-0.421330	0.000000	-0.009113	-114.258560	411.040863	-3.110081	0.011324	-0.000000	0.061194	-0.000000	-18.640973	0.000000	-0.000000	-12.420036	0.000000
150.45	233.094604	332.114319	40.490524	-0.412425	0.000000	0.052044	-80.075302	459.803101	-36.372528	0.055978	-0.000000	0.100778	-0.000000	-50.339209	0.000000	0.000000	17.778794	-0.000000
150.46	123.945709	248.207031	-6.385478	-0.387915	0.000000	-0.024851	-136.771317	562.729370	-31.306665	0.059319	-0.000000	0.089612	0.000000	11.357154	-0.000000	0.000000	31.475645	-0.000000
